<?xml version="1.0" encoding="utf-8"?>
<!-- Generator: Adobe Illustrator 28.2.0, SVG Export Plug-In . SVG Version: 6.00 Build 0)  -->
<svg version="1.1" id="Capa_1" xmlns="http://www.w3.org/2000/svg" xmlns:xlink="http://www.w3.org/1999/xlink" x="0px" y="0px"
	 viewBox="0 0 612 792" style="enable-background:new 0 0 612 792;" xml:space="preserve">
<style type="text/css">
	.st0{fill:#FFED29;}
	.st1{fill:#C4C41E;}
</style>
<g>
	<path d="M191.46,464.16h15.24v30.85c0,8.71-1.74,15.15-5.25,19.31c-3.52,4.17-9.14,6.26-16.88,6.26
		c-16.09,0-24.13-8.41-24.13-25.21V393.78c0-17.17,8.03-25.76,24.13-25.76c14.76,0,22.13,8.46,22.13,25.39v26.49h-15.24v-26.49
		c0-2.9-0.51-5.05-1.54-6.44c-1.03-1.39-2.81-2.09-5.35-2.09c-4.71,0-7.07,2.84-7.07,8.52v101.77c0,5.81,2.37,8.72,7.07,8.72
		c4.59,0,6.89-2.91,6.89-8.72V464.16z"/>
	<path d="M252.17,518.96v-67.67h-14.14v67.67h-16.7V369.65h16.7v64.94h14.14v-64.94h16.68v149.31H252.17z"/>
	<path d="M315.62,369.65h16.68v125.53c0,16.94-7.93,25.4-23.77,25.4c-15.84,0-23.77-8.46-23.77-25.4V369.65h16.7v125.53
		c0,5.81,2.35,8.72,7.07,8.72c4.72,0,7.09-2.91,7.09-8.72V369.65z"/>
	<path d="M380.85,518.96l-2.72-23.05h-18.32c-0.62,3.87-1.13,7.71-1.54,11.52c-0.44,3.82-0.89,7.66-1.35,11.53h-16.34l19.41-149.31
		h19.42l18.31,149.31H380.85z M376.31,480.49c-1.32-11.36-2.59-22.58-3.8-33.66c-1.22-11.06-2.35-22.46-3.44-34.19
		c-2.18,23.46-4.72,46.07-7.63,67.85H376.31z"/>
	<path d="M404.25,518.96V501.9l30.84-115.93h-29.56v-16.33h46.26v15.07L421.66,501.9h30.13v17.06H404.25z"/>
</g>
<g>
	<path d="M167.35,347.81c-4.61,0-6.92-2.18-6.92-6.54V318.2c0-6.54,1.55-11.5,4.66-14.9c3.11-3.4,7.58-5.1,13.41-5.1
		c7.95,0,13.33,2.85,16.15,8.56c2.82-5.7,8.2-8.56,16.15-8.56c5.83,0,10.3,1.7,13.41,5.1c3.11,3.4,4.66,8.36,4.66,14.9v23.07
		c0,4.36-2.31,6.54-6.92,6.54c-4.61,0-6.92-2.18-6.92-6.54v-22.3c0-3.27-0.55-5.62-1.63-7.07c-1.09-1.44-2.79-2.16-5.09-2.16
		c-4.61,0-6.92,3.08-6.92,9.23v21.92c0,4.36-2.24,6.54-6.73,6.54c-4.49,0-6.73-2.18-6.73-6.54v-21.92c0-6.15-2.31-9.23-6.92-9.23
		c-4.49,0-6.73,3.08-6.73,9.23v22.3C174.27,345.63,171.97,347.81,167.35,347.81z"/>
	<path d="M260.31,347.81c-6.86,0-12.27-1.95-16.25-5.86c-3.97-3.91-5.96-10.22-5.96-18.94c0-8.78,1.99-15.11,5.96-18.98
		c3.97-3.88,9.39-5.82,16.25-5.82c6.86,0,12.27,1.94,16.25,5.82c3.97,3.88,5.96,10.21,5.96,18.98c0,8.72-1.99,15.03-5.96,18.94
		C272.58,345.86,267.16,347.81,260.31,347.81z M260.31,336.27c1.79,0,3.3-0.37,4.52-1.11c1.22-0.74,2.16-2.07,2.84-3.99
		c0.67-1.92,1.01-4.65,1.01-8.17c0-3.52-0.34-6.25-1.01-8.17c-0.67-1.92-1.62-3.25-2.84-3.99c-1.22-0.74-2.72-1.11-4.52-1.11
		c-1.73,0-3.22,0.37-4.47,1.11c-1.25,0.74-2.21,2.07-2.88,3.99c-0.67,1.92-1.01,4.65-1.01,8.17c0,3.53,0.34,6.25,1.01,8.17
		c0.67,1.92,1.63,3.25,2.88,3.99C257.09,335.91,258.58,336.27,260.31,336.27z"/>
	<path d="M312.02,347.81c-5.96,0-10.37-1.41-13.22-4.23c-2.85-2.82-4.28-7.14-4.28-12.98v-19.99h-2.5c-4.36,0-6.54-1.95-6.54-5.86
		c0-3.85,2.18-5.77,6.54-5.77h2.5V288.6c0-2.11,0.66-3.85,1.97-5.19c1.31-1.35,3.03-2.02,5.14-2.02c2.05,0,3.68,0.62,4.9,1.87
		c1.22,1.25,1.83,2.97,1.83,5.14v4.71c0,2.37-0.38,4.33-1.15,5.86h9.13c4.36,0,6.54,1.92,6.54,5.77c0,3.91-2.18,5.86-6.54,5.86
		h-7.98v20.28c0,1.92,0.22,3.28,0.67,4.09c0.45,0.8,1.19,1.2,2.21,1.2c1.35,0,2.36-0.11,3.03-0.34c0.67-0.22,1.52-0.34,2.55-0.34
		c1.73,0,3.11,0.31,4.13,0.91c1.02,0.61,1.54,1.84,1.54,3.7c0,2.63-0.83,4.57-2.5,5.82C318.34,347.19,315.68,347.81,312.02,347.81z"
		/>
	<path d="M345.86,341.37c0,4.29-2.24,6.44-6.73,6.44c-2.18,0-3.91-0.53-5.19-1.59c-1.28-1.06-1.92-2.67-1.92-4.85v-36.62
		c0-2.05,0.53-3.65,1.59-4.81c1.06-1.15,2.84-1.73,5.34-1.73c2.5,0,4.28,0.58,5.33,1.73c1.06,1.15,1.59,2.76,1.59,4.81V341.37z"/>
	<path d="M377.29,347.81c-6.86,0-12.27-1.95-16.25-5.86c-3.97-3.91-5.96-10.22-5.96-18.94c0-8.78,1.99-15.11,5.96-18.98
		c3.97-3.88,9.39-5.82,16.25-5.82c6.86,0,12.27,1.94,16.24,5.82c3.97,3.88,5.96,10.21,5.96,18.98c0,8.72-1.99,15.03-5.96,18.94
		C389.56,345.86,384.15,347.81,377.29,347.81z M377.29,336.27c1.79,0,3.3-0.37,4.52-1.11c1.22-0.74,2.16-2.07,2.84-3.99
		c0.67-1.92,1.01-4.65,1.01-8.17c0-3.52-0.34-6.25-1.01-8.17c-0.67-1.92-1.62-3.25-2.84-3.99c-1.22-0.74-2.72-1.11-4.52-1.11
		c-1.73,0-3.22,0.37-4.47,1.11c-1.25,0.74-2.21,2.07-2.88,3.99c-0.67,1.92-1.01,4.65-1.01,8.17c0,3.53,0.34,6.25,1.01,8.17
		c0.67,1.92,1.63,3.25,2.88,3.99C374.07,335.91,375.56,336.27,377.29,336.27z"/>
	<path d="M415.65,347.81c-4.61,0-6.92-2.18-6.92-6.54V318.2c0-6.15,1.97-11.02,5.91-14.61c3.94-3.59,9.15-5.38,15.62-5.38
		c6.47,0,11.68,1.8,15.62,5.38c3.94,3.59,5.91,8.46,5.91,14.61v23.07c0,4.36-2.31,6.54-6.92,6.54c-4.61,0-6.92-2.18-6.92-6.54v-22.3
		c0-3.01-0.67-5.3-2.02-6.87c-1.35-1.57-3.24-2.36-5.67-2.36c-2.44,0-4.33,0.79-5.67,2.36c-1.35,1.57-2.02,3.86-2.02,6.87v22.3
		C422.57,345.63,420.26,347.81,415.65,347.81z"/>
</g>
<g>
	<polygon class="st0" points="338.94,270.75 327.71,281.87 338.94,292.98 	"/>
	<polygon class="st1" points="338.94,270.75 338.94,292.98 350.17,281.87 	"/>
</g>
</svg>
